<svg xmlns="http://www.w3.org/2000/svg" viewBox="0 0 398 122" width="398" height="122"><rect x="10" y="10" width="11" height="11" rx="2" fill="#2d333b"><title>2026-01-12</title></rect><rect x="10" y="24" width="11" height="11" rx="2" fill="#2d333b"><title>2026-01-13</title></rect><rect x="10" y="38" width="11" height="11" rx="2" fill="#2d333b"><title>2026-01-14</title></rect><rect x="10" y="52" width="11" height="11" rx="2" fill="#2d333b"><title>2026-01-15</title></rect><rect x="10" y="66" width="11" height="11" rx="2" fill="#2d333b"><title>2026-01-16</title></rect><rect x="10" y="80" width="11" height="11" rx="2" fill="#2d333b"><title>2026-01-17</title></rect><rect x="10" y="94" width="11" height="11" rx="2" fill="#2d333b"><title>2026-01-18</title></rect><rect x="24" y="10" width="11" height="11" rx="2" fill="#2d333b"><title>2026-01-19</title></rect><rect x="24" y="24" width="11" height="11" rx="2" fill="#2d333b"><title>2026-01-20</title></rect><rect x="24" y="38" width="11" height="11" rx="2" fill="#2d333b"><title>2026-01-21</title></rect><rect x="24" y="52" width="11" height="11" rx="2" fill="#2d333b"><title>2026-01-22</title></rect><rect x="24" y="66" width="11" height="11" rx="2" fill="#2d333b"><title>2026-01-23</title></rect><rect x="24" y="80" width="11" height="11" rx="2" fill="#2d333b"><title>2026-01-24</title></rect><rect x="24" y="94" width="11" height="11" rx="2" fill="#2d333b"><title>2026-01-25</title></rect><rect x="38" y="10" width="11" height="11" rx="2" fill="#2d333b"><title>2026-01-26</title></rect><rect x="38" y="24" width="11" height="11" rx="2" fill="#2d333b"><title>2026-01-27</title></rect><rect x="38" y="38" width="11" height="11" rx="2" fill="#2d333b"><title>2026-01-28</title></rect><rect x="38" y="52" width="11" height="11" rx="2" fill="#2d333b"><title>2026-01-29</title></rect><rect x="38" y="66" width="11" height="11" rx="2" fill="#2d333b"><title>2026-01-30</title></rect><rect x="38" y="80" width="11" height="11" rx="2" fill="#2d333b"><title>2026-01-31</title></rect><rect x="38" y="94" width="11" height="11" rx="2" fill="#2d333b"><title>2026-02-01</title></rect><rect x="52" y="10" width="11" height="11" rx="2" fill="#2d333b"><title>2026-02-02</title></rect><rect x="52" y="24" width="11" height="11" rx="2" fill="#2d333b"><title>2026-02-03</title></rect><rect x="52" y="38" width="11" height="11" rx="2" fill="#2d333b"><title>2026-02-04</title></rect><rect x="52" y="52" width="11" height="11" rx="2" fill="#2d333b"><title>2026-02-05</title></rect><rect x="52" y="66" width="11" height="11" rx="2" fill="#2d333b"><title>2026-02-06</title></rect><rect x="52" y="80" width="11" height="11" rx="2" fill="#2d333b"><title>2026-02-07</title></rect><rect x="52" y="94" width="11" height="11" rx="2" fill="#2d333b"><title>2026-02-08</title></rect><rect x="66" y="10" width="11" height="11" rx="2" fill="#2d333b"><title>2026-02-09</title></rect><rect x="66" y="24" width="11" height="11" rx="2" fill="#2d333b"><title>2026-02-10</title></rect><rect x="66" y="38" width="11" height="11" rx="2" fill="#2d333b"><title>2026-02-11</title></rect><rect x="66" y="52" width="11" height="11" rx="2" fill="#2d333b"><title>2026-02-12</title></rect><rect x="66" y="66" width="11" height="11" rx="2" fill="#2d333b"><title>2026-02-13</title></rect><rect x="66" y="80" width="11" height="11" rx="2" fill="#2d333b"><title>2026-02-14</title></rect><rect x="66" y="94" width="11" height="11" rx="2" fill="#2d333b"><title>2026-02-15</title></rect><rect x="80" y="10" width="11" height="11" rx="2" fill="#2d333b"><title>2026-02-16</title></rect><rect x="80" y="24" width="11" height="11" rx="2" fill="#2d333b"><title>2026-02-17</title></rect><rect x="80" y="38" width="11" height="11" rx="2" fill="#2d333b"><title>2026-02-18</title></rect><rect x="80" y="52" width="11" height="11" rx="2" fill="#2d333b"><title>2026-02-19</title></rect><rect x="80" y="66" width="11" height="11" rx="2" fill="#2d333b"><title>2026-02-20</title></rect><rect x="80" y="80" width="11" height="11" rx="2" fill="#2d333b"><title>2026-02-21</title></rect><rect x="80" y="94" width="11" height="11" rx="2" fill="#2d333b"><title>2026-02-22</title></rect><rect x="94" y="10" width="11" height="11" rx="2" fill="#2d333b"><title>2026-02-23</title></rect><rect x="94" y="24" width="11" height="11" rx="2" fill="#2d333b"><title>2026-02-24</title></rect><rect x="94" y="38" width="11" height="11" rx="2" fill="#2d333b"><title>2026-02-25</title></rect><rect x="94" y="52" width="11" height="11" rx="2" fill="#2d333b"><title>2026-02-26</title></rect><rect x="94" y="66" width="11" height="11" rx="2" fill="#2d333b"><title>2026-02-27</title></rect><rect x="94" y="80" width="11" height="11" rx="2" fill="#2d333b"><title>2026-02-28</title></rect><rect x="94" y="94" width="11" height="11" rx="2" fill="#2d333b"><title>2026-03-01</title></rect><rect x="108" y="10" width="11" height="11" rx="2" fill="#2d333b"><title>2026-03-02</title></rect><rect x="108" y="24" width="11" height="11" rx="2" fill="#2d333b"><title>2026-03-03</title></rect><rect x="108" y="38" width="11" height="11" rx="2" fill="#2d333b"><title>2026-03-04</title></rect><rect x="108" y="52" width="11" height="11" rx="2" fill="#2d333b"><title>2026-03-05</title></rect><rect x="108" y="66" width="11" height="11" rx="2" fill="#2d333b"><title>2026-03-06</title></rect><rect x="108" y="80" width="11" height="11" rx="2" fill="#2d333b"><title>2026-03-07</title></rect><rect x="108" y="94" width="11" height="11" rx="2" fill="#2d333b"><title>2026-03-08</title></rect><rect x="122" y="10" width="11" height="11" rx="2" fill="#2d333b"><title>2026-03-09</title></rect><rect x="122" y="24" width="11" height="11" rx="2" fill="#2d333b"><title>2026-03-10</title></rect><rect x="122" y="38" width="11" height="11" rx="2" fill="#2d333b"><title>2026-03-11</title></rect><rect x="122" y="52" width="11" height="11" rx="2" fill="#2d333b"><title>2026-03-12</title></rect><rect x="122" y="66" width="11" height="11" rx="2" fill="#2d333b"><title>2026-03-13</title></rect><rect x="122" y="80" width="11" height="11" rx="2" fill="#2d333b"><title>2026-03-14</title></rect><rect x="122" y="94" width="11" height="11" rx="2" fill="#2d333b"><title>2026-03-15</title></rect><rect x="136" y="10" width="11" height="11" rx="2" fill="#2d333b"><title>2026-03-16</title></rect><rect x="136" y="24" width="11" height="11" rx="2" fill="#2d333b"><title>2026-03-17</title></rect><rect x="136" y="38" width="11" height="11" rx="2" fill="#2d333b"><title>2026-03-18</title></rect><rect x="136" y="52" width="11" height="11" rx="2" fill="#2d333b"><title>2026-03-19</title></rect><rect x="136" y="66" width="11" height="11" rx="2" fill="#2d333b"><title>2026-03-20</title></rect><rect x="136" y="80" width="11" height="11" rx="2" fill="#2d333b"><title>2026-03-21</title></rect><rect x="136" y="94" width="11" height="11" rx="2" fill="#2d333b"><title>2026-03-22</title></rect><rect x="150" y="10" width="11" height="11" rx="2" fill="#2d333b"><title>2026-03-23</title></rect><rect x="150" y="24" width="11" height="11" rx="2" fill="#2d333b"><title>2026-03-24</title></rect><rect x="150" y="38" width="11" height="11" rx="2" fill="#2d333b"><title>2026-03-25</title></rect><rect x="150" y="52" width="11" height="11" rx="2" fill="#2d333b"><title>2026-03-26</title></rect><rect x="150" y="66" width="11" height="11" rx="2" fill="#2d333b"><title>2026-03-27</title></rect><rect x="150" y="80" width="11" height="11" rx="2" fill="#2d333b"><title>2026-03-28</title></rect><rect x="150" y="94" width="11" height="11" rx="2" fill="#2d333b"><title>2026-03-29</title></rect><rect x="164" y="10" width="11" height="11" rx="2" fill="#2d333b"><title>2026-03-30</title></rect><rect x="164" y="24" width="11" height="11" rx="2" fill="#2d333b"><title>2026-03-31</title></rect><rect x="164" y="38" width="11" height="11" rx="2" fill="#2d333b"><title>2026-04-01</title></rect><rect x="164" y="52" width="11" height="11" rx="2" fill="#2d333b"><title>2026-04-02</title></rect><rect x="164" y="66" width="11" height="11" rx="2" fill="#2d333b"><title>2026-04-03</title></rect><rect x="164" y="80" width="11" height="11" rx="2" fill="#2d333b"><title>2026-04-04</title></rect><rect x="164" y="94" width="11" height="11" rx="2" fill="#2d333b"><title>2026-04-05</title></rect><rect x="178" y="10" width="11" height="11" rx="2" fill="#2d333b"><title>2026-04-06</title></rect><rect x="178" y="24" width="11" height="11" rx="2" fill="#2d333b"><title>2026-04-07</title></rect><rect x="178" y="38" width="11" height="11" rx="2" fill="#2d333b"><title>2026-04-08</title></rect><rect x="178" y="52" width="11" height="11" rx="2" fill="#2d333b"><title>2026-04-09</title></rect><rect x="178" y="66" width="11" height="11" rx="2" fill="#2d333b"><title>2026-04-10</title></rect><rect x="178" y="80" width="11" height="11" rx="2" fill="#2d333b"><title>2026-04-11</title></rect><rect x="178" y="94" width="11" height="11" rx="2" fill="#2d333b"><title>2026-04-12</title></rect><rect x="192" y="10" width="11" height="11" rx="2" fill="#2d333b"><title>2026-04-13</title></rect><rect x="192" y="24" width="11" height="11" rx="2" fill="#2d333b"><title>2026-04-14</title></rect><rect x="192" y="38" width="11" height="11" rx="2" fill="#2d333b"><title>2026-04-15</title></rect><rect x="192" y="52" width="11" height="11" rx="2" fill="#2d333b"><title>2026-04-16</title></rect><rect x="192" y="66" width="11" height="11" rx="2" fill="#2d333b"><title>2026-04-17</title></rect><rect x="192" y="80" width="11" height="11" rx="2" fill="#2d333b"><title>2026-04-18</title></rect><rect x="192" y="94" width="11" height="11" rx="2" fill="#2d333b"><title>2026-04-19</title></rect><rect x="206" y="10" width="11" height="11" rx="2" fill="#2d333b"><title>2026-04-20</title></rect><rect x="206" y="24" width="11" height="11" rx="2" fill="#2d333b"><title>2026-04-21</title></rect><rect x="206" y="38" width="11" height="11" rx="2" fill="#2d333b"><title>2026-04-22</title></rect><rect x="206" y="52" width="11" height="11" rx="2" fill="#2d333b"><title>2026-04-23</title></rect><rect x="206" y="66" width="11" height="11" rx="2" fill="#2d333b"><title>2026-04-24</title></rect><rect x="206" y="80" width="11" height="11" rx="2" fill="#2d333b"><title>2026-04-25</title></rect><rect x="206" y="94" width="11" height="11" rx="2" fill="#2d333b"><title>2026-04-26</title></rect><rect x="220" y="10" width="11" height="11" rx="2" fill="#2d333b"><title>2026-04-27</title></rect><rect x="220" y="24" width="11" height="11" rx="2" fill="#2d333b"><title>2026-04-28</title></rect><rect x="220" y="38" width="11" height="11" rx="2" fill="#2d333b"><title>2026-04-29</title></rect><rect x="220" y="52" width="11" height="11" rx="2" fill="#2d333b"><title>2026-04-30</title></rect><rect x="220" y="66" width="11" height="11" rx="2" fill="#2d333b"><title>2026-05-01</title></rect><rect x="220" y="80" width="11" height="11" rx="2" fill="#2d333b"><title>2026-05-02</title></rect><rect x="220" y="94" width="11" height="11" rx="2" fill="#2d333b"><title>2026-05-03</title></rect><rect x="234" y="10" width="11" height="11" rx="2" fill="#2d333b"><title>2026-05-04</title></rect><rect x="234" y="24" width="11" height="11" rx="2" fill="#2d333b"><title>2026-05-05</title></rect><rect x="234" y="38" width="11" height="11" rx="2" fill="#2d333b"><title>2026-05-06</title></rect><rect x="234" y="52" width="11" height="11" rx="2" fill="#2d333b"><title>2026-05-07</title></rect><rect x="234" y="66" width="11" height="11" rx="2" fill="#2d333b"><title>2026-05-08</title></rect><rect x="234" y="80" width="11" height="11" rx="2" fill="#2d333b"><title>2026-05-09</title></rect><rect x="234" y="94" width="11" height="11" rx="2" fill="#2d333b"><title>2026-05-10</title></rect><rect x="248" y="10" width="11" height="11" rx="2" fill="#2d333b"><title>2026-05-11</title></rect><rect x="248" y="24" width="11" height="11" rx="2" fill="#2d333b"><title>2026-05-12</title></rect><rect x="248" y="38" width="11" height="11" rx="2" fill="#2d333b"><title>2026-05-13</title></rect><rect x="248" y="52" width="11" height="11" rx="2" fill="#2d333b"><title>2026-05-14</title></rect><rect x="248" y="66" width="11" height="11" rx="2" fill="#2d333b"><title>2026-05-15</title></rect><rect x="248" y="80" width="11" height="11" rx="2" fill="#2d333b"><title>2026-05-16</title></rect><rect x="248" y="94" width="11" height="11" rx="2" fill="#2d333b"><title>2026-05-17</title></rect><rect x="262" y="10" width="11" height="11" rx="2" fill="#2d333b"><title>2026-05-18</title></rect><rect x="262" y="24" width="11" height="11" rx="2" fill="#2d333b"><title>2026-05-19</title></rect><rect x="262" y="38" width="11" height="11" rx="2" fill="#2d333b"><title>2026-05-20</title></rect><rect x="262" y="52" width="11" height="11" rx="2" fill="#2d333b"><title>2026-05-21</title></rect><rect x="262" y="66" width="11" height="11" rx="2" fill="#2d333b"><title>2026-05-22</title></rect><rect x="262" y="80" width="11" height="11" rx="2" fill="#2d333b"><title>2026-05-23</title></rect><rect x="262" y="94" width="11" height="11" rx="2" fill="#2d333b"><title>2026-05-24</title></rect><rect x="276" y="10" width="11" height="11" rx="2" fill="#2d333b"><title>2026-05-25</title></rect><rect x="276" y="24" width="11" height="11" rx="2" fill="#2d333b"><title>2026-05-26</title></rect><rect x="276" y="38" width="11" height="11" rx="2" fill="#2d333b"><title>2026-05-27</title></rect><rect x="276" y="52" width="11" height="11" rx="2" fill="#2d333b"><title>2026-05-28</title></rect><rect x="276" y="66" width="11" height="11" rx="2" fill="#2d333b"><title>2026-05-29</title></rect><rect x="276" y="80" width="11" height="11" rx="2" fill="#2d333b"><title>2026-05-30</title></rect><rect x="276" y="94" width="11" height="11" rx="2" fill="#2d333b"><title>2026-05-31</title></rect><rect x="290" y="10" width="11" height="11" rx="2" fill="#2d333b"><title>2026-06-01</title></rect><rect x="290" y="24" width="11" height="11" rx="2" fill="#2d333b"><title>2026-06-02</title></rect><rect x="290" y="38" width="11" height="11" rx="2" fill="#2d333b"><title>2026-06-03</title></rect><rect x="290" y="52" width="11" height="11" rx="2" fill="#2d333b"><title>2026-06-04</title></rect><rect x="290" y="66" width="11" height="11" rx="2" fill="#2d333b"><title>2026-06-05</title></rect><rect x="290" y="80" width="11" height="11" rx="2" fill="#2d333b"><title>2026-06-06</title></rect><rect x="290" y="94" width="11" height="11" rx="2" fill="#2d333b"><title>2026-06-07</title></rect><rect x="304" y="10" width="11" height="11" rx="2" fill="#2d333b"><title>2026-06-08</title></rect><rect x="304" y="24" width="11" height="11" rx="2" fill="#2d333b"><title>2026-06-09</title></rect><rect x="304" y="38" width="11" height="11" rx="2" fill="#2d333b"><title>2026-06-10</title></rect><rect x="304" y="52" width="11" height="11" rx="2" fill="#2d333b"><title>2026-06-11</title></rect><rect x="304" y="66" width="11" height="11" rx="2" fill="#2d333b"><title>2026-06-12</title></rect><rect x="304" y="80" width="11" height="11" rx="2" fill="#2d333b"><title>2026-06-13</title></rect><rect x="304" y="94" width="11" height="11" rx="2" fill="#2d333b"><title>2026-06-14</title></rect><rect x="318" y="10" width="11" height="11" rx="2" fill="#2d333b"><title>2026-06-15</title></rect><rect x="318" y="24" width="11" height="11" rx="2" fill="#2d333b"><title>2026-06-16</title></rect><rect x="318" y="38" width="11" height="11" rx="2" fill="#2d333b"><title>2026-06-17</title></rect><rect x="318" y="52" width="11" height="11" rx="2" fill="#2d333b"><title>2026-06-18</title></rect><rect x="318" y="66" width="11" height="11" rx="2" fill="#2d333b"><title>2026-06-19</title></rect><rect x="318" y="80" width="11" height="11" rx="2" fill="#2d333b"><title>2026-06-20</title></rect><rect x="318" y="94" width="11" height="11" rx="2" fill="#2d333b"><title>2026-06-21</title></rect><rect x="332" y="10" width="11" height="11" rx="2" fill="#2d333b"><title>2026-06-22</title></rect><rect x="332" y="24" width="11" height="11" rx="2" fill="#2d333b"><title>2026-06-23</title></rect><rect x="332" y="38" width="11" height="11" rx="2" fill="#2d333b"><title>2026-06-24</title></rect><rect x="332" y="52" width="11" height="11" rx="2" fill="#2d333b"><title>2026-06-25</title></rect><rect x="332" y="66" width="11" height="11" rx="2" fill="#2d333b"><title>2026-06-26</title></rect><rect x="332" y="80" width="11" height="11" rx="2" fill="#2d333b"><title>2026-06-27</title></rect><rect x="332" y="94" width="11" height="11" rx="2" fill="#2d333b"><title>2026-06-28</title></rect><rect x="346" y="10" width="11" height="11" rx="2" fill="#2d333b"><title>2026-06-29</title></rect><rect x="346" y="24" width="11" height="11" rx="2" fill="#2d333b"><title>2026-06-30</title></rect><rect x="346" y="38" width="11" height="11" rx="2" fill="#2d333b"><title>2026-07-01</title></rect><rect x="346" y="52" width="11" height="11" rx="2" fill="#2d333b"><title>2026-07-02</title></rect><rect x="346" y="66" width="11" height="11" rx="2" fill="#2d333b"><title>2026-07-03</title></rect><rect x="346" y="80" width="11" height="11" rx="2" fill="#2d333b"><title>2026-07-04</title></rect><rect x="346" y="94" width="11" height="11" rx="2" fill="#2d333b"><title>2026-07-05</title></rect><rect x="360" y="10" width="11" height="11" rx="2" fill="#2d333b"><title>2026-07-06</title></rect><rect x="360" y="24" width="11" height="11" rx="2" fill="#2d333b"><title>2026-07-07</title></rect><rect x="360" y="38" width="11" height="11" rx="2" fill="#2d333b"><title>2026-07-08</title></rect><rect x="360" y="52" width="11" height="11" rx="2" fill="#2d333b"><title>2026-07-09</title></rect><rect x="360" y="66" width="11" height="11" rx="2" fill="#2d333b"><title>2026-07-10</title></rect><rect x="360" y="80" width="11" height="11" rx="2" fill="#2d333b"><title>2026-07-11</title></rect><rect x="360" y="94" width="11" height="11" rx="2" fill="#2d333b"><title>2026-07-12</title></rect><rect x="374" y="10" width="11" height="11" rx="2" fill="#2d333b"><title>2026-07-13</title></rect><rect x="374" y="24" width="11" height="11" rx="2" fill="#2d333b"><title>2026-07-14</title></rect><rect x="374" y="38" width="11" height="11" rx="2" fill="#2d333b"><title>2026-07-15</title></rect><rect x="374" y="52" width="11" height="11" rx="2" fill="#2d333b"><title>2026-07-16</title></rect><rect x="374" y="66" width="11" height="11" rx="2" fill="#2d333b"><title>2026-07-17</title></rect><rect x="374" y="80" width="11" height="11" rx="2" fill="#2d333b"><title>2026-07-18</title></rect></svg>